<svg width="1200" height="630" viewBox="0 0 1200 630" fill="none" xmlns="http://www.w3.org/2000/svg">
  <defs>
    <linearGradient id="bg" x1="84" y1="44" x2="1083" y2="596" gradientUnits="userSpaceOnUse">
      <stop stop-color="#09111F"/>
      <stop offset="1" stop-color="#121E34"/>
    </linearGradient>
    <linearGradient id="frame" x1="124" y1="72" x2="1034" y2="566" gradientUnits="userSpaceOnUse">
      <stop stop-color="#7ED8E7"/>
      <stop offset="0.4" stop-color="#B5A1D2"/>
      <stop offset="0.72" stop-color="#F29C79"/>
      <stop offset="1" stop-color="#C8F35D"/>
    </linearGradient>
    <linearGradient id="mark-ring" x1="159" y1="102" x2="390" y2="350" gradientUnits="userSpaceOnUse">
      <stop stop-color="#7ED8E7"/>
      <stop offset="0.34" stop-color="#B5A1D2"/>
      <stop offset="0.68" stop-color="#F29C79"/>
      <stop offset="1" stop-color="#C8F35D"/>
    </linearGradient>
    <linearGradient id="mark-core" x1="210" y1="148" x2="338" y2="300" gradientUnits="userSpaceOnUse">
      <stop stop-color="#0C1222"/>
      <stop offset="1" stop-color="#16233D"/>
    </linearGradient>
    <linearGradient id="mark-stroke" x1="227" y1="166" x2="324" y2="286" gradientUnits="userSpaceOnUse">
      <stop stop-color="#F4FBFF"/>
      <stop offset="1" stop-color="#AFE1EA"/>
    </linearGradient>
    <linearGradient id="text-fill" x1="462" y1="136" x2="1040" y2="365" gradientUnits="userSpaceOnUse">
      <stop stop-color="#F6FBFF"/>
      <stop offset="1" stop-color="#D1E4F1"/>
    </linearGradient>
  </defs>

  <rect width="1200" height="630" fill="#06101A"/>
  <rect x="54" y="54" width="1092" height="522" rx="34" fill="url(#bg)" stroke="url(#frame)" stroke-width="2"/>

  <circle cx="1016" cy="126" r="104" fill="#7ED8E7" fill-opacity="0.08"/>
  <circle cx="109" cy="533" r="132" fill="#C8F35D" fill-opacity="0.06"/>
  <circle cx="954" cy="520" r="128" fill="#B5A1D2" fill-opacity="0.08"/>

  <g>
    <circle cx="274" cy="238" r="118" fill="#0A101D"/>
    <circle cx="274" cy="238" r="101" fill="url(#mark-core)" stroke="url(#mark-ring)" stroke-width="12"/>
    <circle cx="274" cy="238" r="74" stroke="rgba(255,255,255,0.08)" stroke-width="2"/>

    <path
      d="M308 183H243C235.82 183 230 188.82 230 196V280C230 287.18 235.82 293 243 293H308"
      stroke="url(#mark-stroke)"
      stroke-width="14"
      stroke-linecap="round"
      stroke-linejoin="round"
    />
    <path d="M244 238H301" stroke="url(#mark-stroke)" stroke-width="14" stroke-linecap="round"/>

    <circle cx="193" cy="195" r="10" fill="#7ED8E7"/>
    <circle cx="344" cy="176" r="9" fill="#B5A1D2"/>
    <circle cx="357" cy="291" r="10" fill="#C8F35D"/>
    <circle cx="205" cy="315" r="9" fill="#F29C79"/>

    <path d="M201 201L223 208" stroke="url(#mark-ring)" stroke-width="4" stroke-linecap="round" opacity="0.92"/>
    <path d="M336 184L313 194" stroke="url(#mark-ring)" stroke-width="4" stroke-linecap="round" opacity="0.92"/>
    <path d="M347 284L320 270" stroke="url(#mark-ring)" stroke-width="4" stroke-linecap="round" opacity="0.92"/>
    <path d="M214 307L231 287" stroke="url(#mark-ring)" stroke-width="4" stroke-linecap="round" opacity="0.92"/>
  </g>

  <text x="442" y="198" fill="#9BC5D0" font-family="Space Grotesk, Inter, sans-serif" font-size="34" font-weight="700" letter-spacing="4">EVA PROTOCOL</text>
  <text x="442" y="286" fill="url(#text-fill)" font-family="Space Grotesk, Inter, sans-serif" font-size="78" font-weight="700">Trust graph core.</text>
  <text x="442" y="366" fill="url(#text-fill)" font-family="Space Grotesk, Inter, sans-serif" font-size="78" font-weight="700">Distribution-native channels.</text>
  <text x="442" y="438" fill="#B6CADB" font-family="Space Grotesk, Inter, sans-serif" font-size="30">Curators stake behind signal. Eva verifies claims. Reputation compounds on Avalanche.</text>
  <text x="442" y="498" fill="#86A8BA" font-family="JetBrains Mono, ui-monospace, monospace" font-size="24">Trust graph • X verification market • ERC-8004 • $EVA</text>
</svg>
